# xmcd
#
# Track frame offsets: 
#        150
#        14360
#        29653
#        51945
#        65972
#        80870
#        99297
#        113407
#        130259
#        145582
#        161994
#        178690
#        195493
#        209278
#        228046
#        240101
#
# Disc length: 3435 seconds
#
# Revision: 1
# Processed by: cddbd v1.5.2PL0 Copyright (c) Steve Scherf et al.
# Submitted via: ExactAudioCopy v0.95b4
#
DISCID=d60d6910
DTITLE=Various Artist - Kuschel  Party  CD 1
DYEAR=1900
DGENRE=Ballad
TTITLE0=Andy Borg  - Diese eine große Liebe
TTITLE1=Wolfgang Petry  - Ich hab' geglaubt , Du liebst mich ( Without
TTITLE1=You )
TTITLE2=Bernhard Brink  - Dich vergess Ich nie
TTITLE3=Marianne Cathomen  - Ich lebe meine Träume
TTITLE4=Gilbert  - Mein Engel ich möcht' Dich nie tauschen
TTITLE5=Geraldine Olivier  - Ein Schiff, das Sehnsucht heißt
TTITLE6=Ulli Bastian  - Am Himmel steht ich lieb ' Dich
TTITLE7=Michaela  - Du hast mich tausend Mal belogen
TTITLE8=Solid Gold  - Eine Reise in die Zärtlichkeit
TTITLE9=Xanadu  - Ein Tag , eine Nacht, eine Stunde
TTITLE10=Bernd Clüver and Marion Maerz  - Schau mal herein ( Stumblin' I
TTITLE10=n )
TTITLE11=Ute Berling  - Alles was ich will bist Du ( Saving All My Lov
TTITLE11=e For You )
TTITLE12=Sigrid and Marina  - La Paloma Blue
TTITLE13=Die Nilsen Brothers  - Dieses Lächeln von Dir
TTITLE14=Ted Herold  - Moonlight
TTITLE15=Die Paldauer  - Ciao Amore
EXTD=
EXTT0=
EXTT1=
EXTT2=
EXTT3=
EXTT4=
EXTT5=
EXTT6=
EXTT7=
EXTT8=
EXTT9=
EXTT10=
EXTT11=
EXTT12=
EXTT13=
EXTT14=
EXTT15=
PLAYORDER=
